<svg xmlns="http://www.w3.org/2000/svg" width="24" height="24" viewBox="0 0 24 24" fill="none" stroke="currentColor" stroke-width="2" stroke-linecap="round" stroke-linejoin="round">
  <defs>
    <clipPath id="leftHalf">
      <rect x="0" y="0" width="12" height="24"/>
    </clipPath>
    <clipPath id="rightHalf">
      <rect x="12" y="0" width="12" height="24"/>
    </clipPath>
  </defs>

  <!-- Левая половина: полная звезда (заливка + обводка жёлтая) -->
  <g clip-path="url(#leftHalf)">
    <path d="M11.525 2.295a.53.53 0 0 1 .95 0l2.31 4.679a2.123 2.123 0 0 0 1.595 1.16l5.166.756a.53.53 0 0 1 .294.904l-3.736 3.638a2.123 2.123 0 0 0-.611 1.878l.882 5.14a.53.53 0 0 1-.771.56l-4.618-2.428a2.122 2.122 0 0 0-1.973 0L6.396 21.01a.53.53 0 0 1-.77-.56l.881-5.139a2.122 2.122 0 0 0-.611-1.879L2.16 9.795a.53.53 0 0 1 .294-.906l5.165-.755a2.122 2.122 0 0 0 1.597-1.16z"
          fill="#facc15" stroke="#facc15" stroke-width="2" stroke-linecap="round" stroke-linejoin="round"/>
  </g>

  <!-- Правая половина: пустая звезда (нет заливки, обводка из оригинала) -->
  <g clip-path="url(#rightHalf)">
    <path d="M11.525 2.295a.53.53 0 0 1 .95 0l2.31 4.679a2.123 2.123 0 0 0 1.595 1.16l5.166.756a.53.53 0 0 1 .294.904l-3.736 3.638a2.123 2.123 0 0 0-.611 1.878l.882 5.14a.53.53 0 0 1-.771.56l-4.618-2.428a2.122 2.122 0 0 0-1.973 0L6.396 21.01a.53.53 0 0 1-.77-.56l.881-5.139a2.122 2.122 0 0 0-.611-1.879L2.16 9.795a.53.53 0 0 1 .294-.906l5.165-.755a2.122 2.122 0 0 0 1.597-1.16z"
          fill="none" stroke="oklch(0.872 0.01 258.338)" stroke-width="2" stroke-linecap="round" stroke-linejoin="round"/>
  </g>
</svg>